<svg width="234" height="234" viewBox="0 0 234 234" fill="none" xmlns="http://www.w3.org/2000/svg">
<path d="M202 136.468H186.467V120.935C186.465 119.149 185.248 117.596 183.516 117.167L180.913 116.507L182.311 114.216C183.225 112.689 182.985 110.737 181.729 109.477L170.739 98.4879C169.479 97.2319 167.528 96.9919 166.001 97.9052L163.709 99.3026L163.049 96.7012C162.621 94.9692 161.068 93.7506 159.283 93.7492H143.749C141.965 93.7506 140.411 94.9692 139.981 96.7012L139.321 99.3026L137.031 97.9052C135.504 96.9919 133.552 97.2319 132.293 98.4879L121.304 109.477C120.047 110.737 119.805 112.689 120.72 114.216L122.119 116.507L119.517 117.167C117.784 117.596 116.567 119.149 116.565 120.935V124.817H19.4786C16.972 124.823 14.532 125.64 12.528 127.148C4.7853 116.896 6.81997 102.308 17.072 94.5652C21.12 91.5079 26.0573 89.8572 31.1306 89.8666H34.392C35.7026 89.8639 36.9253 89.2092 37.6533 88.1186C38.352 87.0132 38.468 85.6359 37.9653 84.4306C36.0013 80.0319 34.9946 75.2666 35.0133 70.4492C35.0186 51.1466 50.6693 35.5026 69.972 35.5066C81.272 35.5106 91.872 40.9746 98.4293 50.1786C99.3453 51.4759 100.967 52.0786 102.507 51.6919C104.044 51.3119 105.196 50.0372 105.419 48.4692C108.957 22.9946 132.477 5.21057 157.953 8.74789C180.992 11.9479 198.137 31.6559 198.117 54.9159C198.147 65.3199 194.641 75.4252 188.176 83.5759C186.845 85.2586 187.132 87.6999 188.813 89.0306C189.505 89.5772 190.361 89.8719 191.244 89.8666H202C214.868 89.8666 225.301 100.299 225.301 113.167C225.301 126.036 214.868 136.468 202 136.468ZM178.699 133.439L173.963 134.604C172.771 134.909 171.792 135.759 171.321 136.895C170.852 138.032 170.937 139.325 171.555 140.389L174.079 144.584L167.399 151.264L163.204 148.74C162.139 148.123 160.848 148.036 159.709 148.507C158.573 148.977 157.724 149.956 157.417 151.147L156.253 155.885H146.779L145.613 151.147C145.307 149.956 144.459 148.977 143.321 148.507C142.184 148.036 140.892 148.123 139.827 148.74L135.633 151.264L128.953 144.584L131.477 140.389C132.095 139.325 132.181 138.032 131.711 136.895C131.24 135.759 130.261 134.909 129.069 134.604L124.332 133.439V123.963L129.069 122.799C130.261 122.492 131.24 121.644 131.711 120.507C132.181 119.369 132.095 118.077 131.477 117.012L128.953 112.817L135.633 106.137L139.827 108.624C140.88 109.272 142.181 109.373 143.321 108.896C144.459 108.424 145.307 107.447 145.613 106.255L146.779 101.517H156.253L157.417 106.255C157.724 107.447 158.573 108.424 159.709 108.896C160.851 109.373 162.151 109.272 163.204 108.624L167.399 106.137L174.079 112.817L171.555 117.012C170.937 118.077 170.852 119.369 171.321 120.507C171.792 121.644 172.771 122.492 173.963 122.799L178.699 123.963V133.439ZM119.517 140.235L122.119 140.895L120.72 143.187C119.805 144.712 120.047 146.664 121.304 147.924L132.293 158.913C133.552 160.171 135.504 160.411 137.031 159.496L139.321 158.099L139.981 160.7C140.411 162.433 141.965 163.651 143.749 163.652H147.633V210.252H93.264C91.12 210.252 89.3813 211.992 89.3813 214.136H73.848C73.848 211.992 72.1093 210.252 69.964 210.252H15.596V136.468C15.608 135.86 15.7533 135.264 16.024 134.72C16.6733 133.407 18.0146 132.579 19.4786 132.584H116.565V136.468C116.567 138.252 117.784 139.807 119.517 140.235ZM153.263 223.145C152.715 224.717 151.239 225.773 149.575 225.787H13.6546C11.9906 225.773 10.5133 224.717 9.9653 223.145L9.07197 218.02H66.0813C66.0813 220.164 67.8186 221.903 69.964 221.903H93.264C95.4093 221.903 97.148 220.164 97.148 218.02H154.156L153.263 223.145ZM202 82.0999H198.583C213.609 56.1186 204.728 22.8759 178.747 7.84924C170.471 3.06258 161.077 0.5439 151.516 0.547913C127.456 0.631912 106.296 16.4746 99.4386 39.5372C82.368 23.2519 55.3293 23.8892 39.044 40.9599C28.584 51.9226 24.716 67.6066 28.8773 82.1772C12.644 83.3786 0.0813003 96.8892 0.0626336 113.167C0.0559669 120.872 2.9373 128.3 8.13996 133.983C7.93863 134.796 7.83463 135.631 7.8293 136.468V210.252H4.41198C2.26664 210.264 0.537308 212.012 0.549308 214.157C0.550641 214.371 0.57064 214.585 0.60664 214.796L2.3933 224.737C2.39597 224.884 2.4213 225.027 2.47063 225.164C3.94397 230.12 8.4853 233.525 13.6546 233.553H149.575C154.744 233.525 159.285 230.12 160.757 225.164C160.805 225.027 160.832 224.884 160.836 224.737L162.623 214.796C162.987 212.683 161.569 210.673 159.456 210.309C159.245 210.273 159.031 210.253 158.816 210.252H155.4V163.652H159.283C161.068 163.651 162.621 162.433 163.049 160.7L163.709 158.099L166.001 159.496C167.528 160.411 169.479 160.171 170.739 158.913L181.729 147.924C182.679 146.951 183.06 145.556 182.739 144.235H202C219.157 144.235 233.068 130.325 233.068 113.167C233.068 96.0092 219.157 82.0999 202 82.0999Z" fill="#444F60"/>
<path d="M151.516 16.0817V23.8484C168.665 23.867 182.564 37.7657 182.584 54.915H190.35C190.326 33.4777 172.953 16.1057 151.516 16.0817Z" fill="#0F1E57"/>
<path d="M42.7799 70.4497H50.5466C50.5599 59.731 59.2466 51.0457 69.9639 51.0324V43.2657C54.9586 43.283 42.7972 55.443 42.7799 70.4497Z" fill="#0F1E57"/>
<path d="M151.516 136.468C147.226 136.468 143.749 132.99 143.749 128.701C143.749 124.412 147.226 120.934 151.516 120.934C155.805 120.934 159.282 124.412 159.282 128.701C159.282 132.99 155.805 136.468 151.516 136.468ZM151.516 113.166C142.936 113.166 135.982 120.121 135.982 128.701C135.982 137.28 142.936 144.234 151.516 144.234C160.096 144.234 167.049 137.28 167.049 128.701C167.049 120.121 160.096 113.166 151.516 113.166Z" fill="#444F60"/>
<path d="M77.7306 109.284H85.4974V117.051H77.7306V109.284Z" fill="#0F1E57"/>
<path d="M151.516 66.5659H81.6142C79.4702 66.5659 77.7302 68.3046 77.7302 70.4499V101.517H85.4969V74.3326H147.633V85.9833H155.4V70.4499C155.4 68.3046 153.66 66.5659 151.516 66.5659Z" fill="#0F1E57"/>
<path d="M120.448 194.718H42.7798C38.4904 194.718 35.0131 191.241 35.0131 186.952C35.0131 182.662 38.4904 179.185 42.7798 179.185C44.9238 179.185 46.6638 177.446 46.6638 175.301V171.418C46.6638 162.84 53.6184 155.885 62.1971 155.885C65.5798 156.006 68.8531 157.109 71.6184 159.061C73.3731 160.294 75.7958 159.87 77.0291 158.116C77.0784 158.044 77.1264 157.97 77.1718 157.896C80.3998 151.992 86.5358 148.262 93.2638 148.117C103.958 148.088 112.65 156.733 112.681 167.426C112.688 169.669 112.304 171.897 111.548 174.008C110.833 176.03 111.894 178.249 113.917 178.964C114.332 179.11 114.769 179.185 115.209 179.185H120.448C124.738 179.185 128.214 182.662 128.214 186.952C128.214 191.241 124.738 194.718 120.448 194.718ZM120.448 171.418H120.161C120.354 170.133 120.449 168.834 120.448 167.534C120.43 152.528 108.27 140.368 93.2638 140.35C85.1584 140.386 77.5384 144.222 72.6824 150.712C69.4238 149.076 65.8424 148.19 62.1971 148.117C49.3344 148.13 38.9104 158.554 38.8971 171.418V171.908C30.5878 174.044 25.5851 182.512 27.7198 190.82C29.4864 197.69 35.6851 202.493 42.7798 202.485H120.448C129.028 202.485 135.981 195.53 135.981 186.952C135.981 178.373 129.028 171.418 120.448 171.418Z" fill="#0F1E57"/>
<path d="M163.165 186.952H170.932V194.719H163.165V186.952Z" fill="#0F1E57"/>
<path d="M194.233 186.953H178.7V194.719H198.117C200.261 194.719 202 192.981 202 190.837V152.002H194.233V186.953Z" fill="#0F1E57"/>
</svg>
