<svg xmlns="http://www.w3.org/2000/svg" viewBox="0 0 62.83 38"><g id="Layer_2" data-name="Layer 2"><g id="Layer_1-2" data-name="Layer 1"><path d="M10.12,14.05a3.78,3.78,0,0,0-3.78,3.78v2.61a3.78,3.78,0,1,0,7.56,0V17.83A3.78,3.78,0,0,0,10.12,14.05Zm1.26,6.39a1.26,1.26,0,1,1-2.52,0V17.83a1.26,1.26,0,0,1,2.52,0Z" fill="#2e7eb8"/><path d="M53.08,14.05a3.78,3.78,0,0,0-3.78,3.78v2.61a3.78,3.78,0,0,0,7.56,0V17.83A3.79,3.79,0,0,0,53.08,14.05Zm1.26,6.39a1.26,1.26,0,1,1-2.52,0V17.83a1.26,1.26,0,0,1,2.52,0Z" fill="#2e7eb8"/><path d="M16.32,0a3.78,3.78,0,0,0-3.78,3.78V6.39a3.78,3.78,0,0,0,7.56,0V3.78A3.79,3.79,0,0,0,16.32,0Zm1.26,6.39a1.26,1.26,0,0,1-2.52,0V3.78a1.26,1.26,0,1,1,2.52,0Z" fill="#2e7eb8"/><path d="M7.6,10.17A1.25,1.25,0,0,0,8.86,8.91V1.26a1.26,1.26,0,0,0-2.52,0V8.91A1.25,1.25,0,0,0,7.6,10.17Z" fill="#2e7eb8"/><path d="M50.75,6.39V3.78a3.79,3.79,0,0,0-7.57,0V6.39a3.79,3.79,0,0,0,7.57,0Zm-2.52,0a1.27,1.27,0,0,1-2.53,0V3.78a1.27,1.27,0,0,1,2.53,0Z" fill="#2e7eb8"/><path d="M55.6,0a1.25,1.25,0,0,0-1.26,1.26V8.91a1.26,1.26,0,0,0,2.52,0V1.26A1.25,1.25,0,0,0,55.6,0Z" fill="#2e7eb8"/><path d="M10,27.83A3.78,3.78,0,0,0,6.2,31.61v2.61a3.78,3.78,0,0,0,7.56,0V31.61A3.79,3.79,0,0,0,10,27.83Zm1.26,6.39a1.26,1.26,0,0,1-2.52,0V31.61a1.26,1.26,0,0,1,2.52,0Z" fill="#2e7eb8"/><path d="M1.26,27.83A1.25,1.25,0,0,0,0,29.09v7.65a1.26,1.26,0,1,0,2.52,0V29.09A1.25,1.25,0,0,0,1.26,27.83Z" fill="#2e7eb8"/><path d="M1.26,14.05A1.25,1.25,0,0,0,0,15.31V23a1.26,1.26,0,0,0,2.52,0V15.31A1.25,1.25,0,0,0,1.26,14.05Z" fill="#2e7eb8"/><path d="M1.4,0A1.26,1.26,0,0,0,.14,1.26V8.91a1.26,1.26,0,0,0,2.52,0V1.26A1.25,1.25,0,0,0,1.4,0Z" fill="#2e7eb8"/><path d="M52.94,27.83a3.79,3.79,0,0,0-3.79,3.78v2.61a3.79,3.79,0,0,0,7.57,0V31.61A3.79,3.79,0,0,0,52.94,27.83Zm1.26,6.39a1.26,1.26,0,1,1-2.52,0V31.61a1.26,1.26,0,0,1,2.52,0Z" fill="#2e7eb8"/><path d="M61.57,27.83a1.25,1.25,0,0,0-1.26,1.26v7.65a1.26,1.26,0,0,0,2.52,0V29.09A1.25,1.25,0,0,0,61.57,27.83Z" fill="#2e7eb8"/><path d="M61.57,13.92a1.25,1.25,0,0,0-1.26,1.26v7.64a1.26,1.26,0,0,0,2.52,0V15.18A1.25,1.25,0,0,0,61.57,13.92Z" fill="#2e7eb8"/><path d="M61.57,0a1.25,1.25,0,0,0-1.26,1.26V8.91a1.26,1.26,0,0,0,2.52,0V1.26A1.25,1.25,0,0,0,61.57,0Z" fill="#2e7eb8"/><path d="M39.39,15.31h-15a6.09,6.09,0,0,0-6.09,6.09v8.43a6.7,6.7,0,0,0,6.7,6.7H38.78a6.69,6.69,0,0,0,6.69-6.7V21.4A6.08,6.08,0,0,0,39.39,15.31Zm2.89,14.83a3.55,3.55,0,0,1-3.55,3.55H25.09a3.55,3.55,0,0,1-3.56-3.55V21.7a3.56,3.56,0,0,1,3.56-3.56H38.73a3.55,3.55,0,0,1,3.55,3.56Z" fill="#3e4753"/><path d="M24.43,14.22h2V10.65a5.44,5.44,0,1,1,10.87,0v3.57h2a6.75,6.75,0,0,1,1.69.21V10.65a9.18,9.18,0,1,0-18.35,0v3.78A6.88,6.88,0,0,1,24.43,14.22Z" fill="#3e4753"/><path d="M37.76,19.83H26.06a2.37,2.37,0,0,0-2.37,2.37v7.44A2.38,2.38,0,0,0,26.06,32h11.7a2.38,2.38,0,0,0,2.37-2.37V22.2A2.37,2.37,0,0,0,37.76,19.83Zm-4.47,6.52v2.1a1.39,1.39,0,0,1-2.77,0v-2.1a2.4,2.4,0,1,1,2.77,0Z" fill="#2e7eb8"/></g></g></svg>