<svg xmlns="http://www.w3.org/2000/svg" viewBox="0 0 62.33 56.6"><g id="Layer_2" data-name="Layer 2"><g id="Layer_1-2" data-name="Layer 1"><path d="M60.6,22.77l-14-6.71a3,3,0,0,0-2.63,0l-14,6.71a3.06,3.06,0,0,0-1.73,2.75c0,9.54,1.8,17.53,5.21,23.1,3.1,5.07,7.43,8,11.86,8s8.76-2.91,11.87-8c3.41-5.57,5.21-13.56,5.21-23.1A3.06,3.06,0,0,0,60.6,22.77ZM54.37,46.94c-2.5,4.1-5.82,6.45-9.12,6.45S38.64,51,36.13,46.94c-3.09-5-4.73-12.42-4.74-21.32L45.25,19l13.87,6.62C59.11,34.52,57.47,41.89,54.37,46.94Z" fill="#2f7cba"/><path d="M45.25,22,33.56,27.55c0,7.5,1.39,13.72,4,18C39.67,49,42.48,51,45.25,51s5.58-2,7.7-5.43c2.6-4.26,4-10.48,4-18Zm7.38,10-3,3.86C48,37.92,46.38,40,44.75,42.12c-.91,1.18-1.65,1.17-2.52,0q-2.17-3-4.33-5.92a1.24,1.24,0,1,1,1.81-1.68l3.17,2.76.53.48L44,37.2q3.34-3.36,6.7-6.7a2.11,2.11,0,0,1,.87-.55,1.09,1.09,0,0,1,1.28.56A1.26,1.26,0,0,1,52.63,32Z" fill="#2f7cba"/><path d="M60.16,0h-58A2.18,2.18,0,0,0,0,2.18V45.25a2.17,2.17,0,0,0,2.18,2.17H28a36.09,36.09,0,0,1-1.46-3.75h-23V9.24H58.78v8l3.55,1.7V2.18A2.17,2.17,0,0,0,60.16,0ZM5.52,6.77A2.16,2.16,0,1,1,7.68,4.62,2.15,2.15,0,0,1,5.52,6.77Zm5.86,0a2.16,2.16,0,1,1,2.16-2.15A2.15,2.15,0,0,1,11.38,6.77Zm5.85,0A2.16,2.16,0,1,1,19.4,4.62,2.15,2.15,0,0,1,17.23,6.77Zm39.39,0h-26a2.16,2.16,0,1,1,0-4.31h26a2.16,2.16,0,1,1,0,4.31Z" fill="#3e4753"/></g></g></svg>