<svg width="241" height="242" viewBox="0 0 241 242" fill="none" xmlns="http://www.w3.org/2000/svg">
<path d="M82.0387 75.4697H89.7693V83.2002H82.0387V75.4697Z" fill="#444F60"/>
<path d="M97.5012 75.4697H105.232V83.2002H97.5012V75.4697Z" fill="#444F60"/>
<path d="M112.963 75.4697H120.695V83.2002H112.963V75.4697Z" fill="#444F60"/>
<path d="M82.0387 121.856H89.7693V129.587H82.0387V121.856Z" fill="#444F60"/>
<path d="M97.5012 121.856H105.232V129.587H97.5012V121.856Z" fill="#444F60"/>
<path d="M112.963 121.856H120.695V129.587H112.963V121.856Z" fill="#444F60"/>
<path d="M217.331 169.78C217.331 190.527 205.244 208.984 186.408 217.237C167.571 208.984 155.483 190.527 155.483 169.78V152.412C166.252 151.449 176.632 148.601 186.408 143.924C196.184 148.601 206.567 151.449 217.331 152.412V169.78ZM188.147 136.169L186.408 135.292L184.668 136.173C174.257 141.423 163.076 144.38 151.428 144.952L147.752 145.129V169.784C147.752 194.225 162.357 215.907 184.963 225.017L186.408 225.599L187.853 225.015C210.459 215.904 225.063 194.221 225.063 169.78V145.125L221.387 144.944C209.744 144.376 198.564 141.423 188.147 136.169Z" fill="#0F1E57"/>
<path d="M232.793 169.78C232.793 199.123 214.205 224.686 186.408 233.766C158.61 224.686 140.021 199.127 140.021 169.78V137.318H147.362C147.482 137.318 147.601 137.307 147.725 137.307H150.706L150.733 137.202C163.156 136.642 175.278 133.039 185.974 126.622L186.408 126.363L186.836 126.622C198.502 133.619 211.854 137.318 225.453 137.318H232.793V169.78ZM112.638 194.598C118.568 189.363 125.692 182.42 132.437 173.472C132.697 178.818 133.485 184.032 134.804 189.054C127.648 191.83 120.233 193.676 112.638 194.598ZM23.4449 152.78H57.7902C66.8702 172.498 80.0249 185.764 90.0515 194.586C62.1475 191.176 38.0422 175.339 23.4449 152.78ZM90.3835 10.4283C81.9075 18.5883 68.9502 32.9989 59.4409 52.2763H23.4449C38.0982 29.6283 62.3395 13.7523 90.3835 10.4283ZM179.286 52.2763H143.292C133.782 32.9989 120.825 18.5883 112.348 10.4283C140.392 13.7523 164.633 29.6283 179.286 52.2763ZM47.3502 98.6629H8.69021C9.26354 84.7776 12.9075 71.6776 18.9529 60.0083H55.9462C51.1955 71.5029 47.8715 84.4683 47.3502 98.6629ZM194.042 98.6629H155.382C154.861 84.4683 151.537 71.5029 146.786 60.0083H183.778C189.824 71.6776 193.466 84.7776 194.042 98.6629ZM138.24 60.0083C143.376 71.4336 147.068 84.4376 147.649 98.6629H55.0849C55.6635 84.4376 59.3555 71.4336 64.4929 60.0083H138.24ZM101.366 10.9189C107.246 16.0149 122.925 30.7656 134.44 52.2763H68.2929C79.8089 30.7656 95.4875 16.0149 101.366 10.9189ZM8.69021 106.394H47.3875C47.8062 121.242 50.5115 134.044 54.5942 145.048H18.9529C12.9075 133.379 9.26621 120.279 8.69021 106.394ZM132.29 129.587V145.048H62.9169C58.5209 134.198 55.5755 121.388 55.1235 106.394H147.633C147.385 114.364 146.384 122.13 144.641 129.587H132.29ZM101.668 193.839C101.56 193.932 101.47 194.006 101.362 194.099C101.23 193.986 101.122 193.894 100.988 193.782C91.8955 186.127 76.8515 173.387 66.4489 152.783H132.29V159.988C122.302 176.394 109.921 186.882 101.668 193.839ZM190.818 119.992L186.408 117.348L181.997 119.992C173.044 125.366 162.976 128.551 152.61 129.363C154.214 121.94 155.132 114.256 155.36 106.394H194.014C193.814 111.252 193.253 116.076 192.302 120.82C191.812 120.542 191.305 120.287 190.818 119.992ZM225.453 129.587C216.488 129.587 207.653 127.782 199.441 124.342C201.02 117.202 201.87 109.888 201.87 102.528C201.87 47.1123 156.786 2.0256 101.366 2.0256C45.9462 2.0256 0.863525 47.1123 0.863525 102.528C0.863525 157.944 45.9462 203.031 101.366 203.031C113.72 203.031 125.742 200.802 137.172 196.434C145.17 217.651 162.51 234.516 185.27 241.516L186.408 241.864L187.544 241.512C219.233 231.767 240.525 202.939 240.525 169.78V129.587H225.453Z" fill="#444F60"/>
<path d="M173.678 179.038L168.212 184.503L182.541 198.833L214.265 167.109L208.801 161.643L182.541 187.902L173.678 179.038Z" fill="#0F1E57"/>
<path d="M221.197 106.394C219.062 106.394 217.331 104.658 217.331 102.529C217.331 100.398 219.062 98.6632 221.197 98.6632C223.331 98.6632 225.062 100.398 225.062 102.529C225.062 104.658 223.331 106.394 221.197 106.394ZM216.81 91.8058C212.585 93.5405 209.601 97.6885 209.601 102.529C209.601 108.922 214.803 114.125 221.197 114.125C227.59 114.125 232.793 108.922 232.793 102.529C232.793 97.3018 229.299 92.9258 224.541 91.4805C221.815 60.7152 207.849 32.3418 184.95 11.3445L179.725 17.0432C201.105 36.6485 214.177 63.1032 216.81 91.8058Z" fill="#0F1E57"/>
<path d="M178.811 6.06806C176.597 4.29073 174.297 2.56673 171.97 0.950727L167.551 7.29739C169.731 8.81206 171.889 10.4281 173.961 12.0947L178.811 6.06806Z" fill="#0F1E57"/>
<path d="M6.5534 169.312L0.233398 173.766C1.8454 176.05 3.5774 178.339 5.3854 180.564L11.3894 175.687C9.68806 173.603 8.0614 171.458 6.5534 169.312Z" fill="#0F1E57"/>
<path d="M116.828 226.224C114.693 226.224 112.963 224.488 112.963 222.359C112.963 220.23 114.693 218.494 116.828 218.494C118.963 218.494 120.693 220.23 120.693 222.359C120.693 224.488 118.963 226.224 116.828 226.224ZM116.828 210.763C111.845 210.763 107.625 213.936 105.989 218.354C104.451 218.412 102.916 218.494 101.365 218.494C69.216 218.494 38.2267 204.972 16.348 181.392L10.6774 186.65C34.0174 211.802 67.072 226.224 101.365 226.224C102.889 226.224 104.393 226.139 105.901 226.086C107.463 230.647 111.744 233.955 116.828 233.955C123.221 233.955 128.424 228.752 128.424 222.359C128.424 215.966 123.221 210.763 116.828 210.763Z" fill="#0F1E57"/>
</svg>
