<svg width="68" height="70" viewBox="0 0 68 70" fill="none" xmlns="http://www.w3.org/2000/svg">
<path d="M61.8333 69.0957H6.05597C2.95597 69.0957 0.44397 66.5837 0.44397 63.485V6.48504C0.44397 3.38637 2.95597 0.873041 6.05597 0.873041H61.8333C64.932 0.873041 67.444 3.38637 67.444 6.48504V63.485C67.444 66.5837 64.932 69.0957 61.8333 69.0957Z" fill="#707070"/>
<path d="M56.0202 48.843H53.5095V36.527C53.5095 36.159 53.2108 35.8604 52.8428 35.8604C52.4748 35.8604 52.1762 36.159 52.1762 36.527V48.843H22.6802C22.3122 48.843 22.0135 49.1417 22.0135 49.5097C22.0135 49.8777 22.3122 50.1764 22.6802 50.1764H55.3535V51.175C55.3535 52.0924 54.6068 52.839 53.6895 52.839H14.3815C13.4642 52.839 12.7175 52.0924 12.7175 51.175V50.1764H19.8388C20.2082 50.1764 20.5055 49.8777 20.5055 49.5097C20.5055 49.1417 20.2082 48.843 19.8388 48.843H15.8948V36.527C15.8948 36.159 15.5962 35.8604 15.2282 35.8604C14.8602 35.8604 14.5615 36.159 14.5615 36.527V48.843H12.0508C11.6828 48.843 11.3842 49.1417 11.3842 49.5097V51.175C11.3842 52.827 12.7282 54.1724 14.3815 54.1724H53.6895C55.3428 54.1724 56.6868 52.827 56.6868 51.175V49.5097C56.6868 49.1417 56.3882 48.843 56.0202 48.843Z" fill="white"/>
<path d="M42.9024 23.2065H50.9411C51.6224 23.2065 52.1771 23.7611 52.1771 24.4411V28.3065C52.1771 28.6758 52.4744 28.9731 52.8437 28.9731C53.2104 28.9731 53.5104 28.6758 53.5104 28.3065V24.4411C53.5104 23.0251 52.3571 21.8731 50.9411 21.8731H42.9024C42.5344 21.8731 42.2357 22.1718 42.2357 22.5398C42.2357 22.9078 42.5344 23.2065 42.9024 23.2065Z" fill="white"/>
<path d="M15.2278 28.9736C15.5958 28.9736 15.8945 28.675 15.8945 28.307V24.4416C15.8945 23.7603 16.4492 23.2056 17.1305 23.2056H25.0798C25.4492 23.2056 25.7465 22.9083 25.7465 22.539C25.7465 22.171 25.4492 21.8723 25.0798 21.8723H17.1305C15.7132 21.8723 14.5612 23.0256 14.5612 24.4416V28.307C14.5612 28.675 14.8598 28.9736 15.2278 28.9736Z" fill="white"/>
<path d="M17.8945 24.5399C17.5265 24.5399 17.2278 24.8386 17.2278 25.2066V28.3079C17.2278 28.6759 17.5265 28.9746 17.8945 28.9746C18.2625 28.9746 18.5612 28.6759 18.5612 28.3079V25.8733H23.6998C24.0665 25.8733 24.3665 25.5746 24.3665 25.2066C24.3665 24.8386 24.0665 24.5399 23.6998 24.5399H17.8945Z" fill="white"/>
<path d="M50.1764 28.9736C50.5444 28.9736 50.8431 28.675 50.8431 28.307V25.2056C50.8431 24.8376 50.5444 24.539 50.1764 24.539H44.2071C43.8391 24.539 43.5404 24.8376 43.5404 25.2056C43.5404 25.575 43.8391 25.8723 44.2071 25.8723H49.5097V28.307C49.5097 28.675 49.8084 28.9736 50.1764 28.9736Z" fill="white"/>
<path d="M17.8945 35.8604C17.5265 35.8604 17.2278 36.1591 17.2278 36.5271V46.8431C17.2278 47.2111 17.5265 47.5098 17.8945 47.5098H50.1758C50.5438 47.5098 50.8425 47.2111 50.8425 46.8431V36.5271C50.8425 36.1591 50.5438 35.8604 50.1758 35.8604C49.8078 35.8604 49.5092 36.1591 49.5092 36.5271V46.1764H18.5612V36.5271C18.5612 36.1591 18.2625 35.8604 17.8945 35.8604Z" fill="white"/>
<path d="M32.9564 32.0948C32.7644 31.8615 32.663 31.5788 32.663 31.2762C32.663 30.9162 32.8084 30.5828 33.0697 30.3362C33.3324 30.0895 33.675 29.9668 34.0364 29.9882C34.6737 30.0282 35.203 30.5588 35.2404 31.1975C35.2604 31.5255 35.1564 31.8455 34.9484 32.0962C34.687 32.4122 34.6044 32.8322 34.727 33.2188L35.243 34.8468H32.663L33.179 33.2188C33.3017 32.8322 33.2177 32.4122 32.9564 32.0948ZM31.5644 35.6522C31.8057 35.9842 32.195 36.1802 32.6044 36.1802H35.3004C35.711 36.1802 36.1004 35.9842 36.343 35.6522C36.5844 35.3215 36.655 34.8908 36.531 34.5002L36.0204 32.8895C36.4137 32.3868 36.6084 31.7602 36.571 31.1188C36.4937 29.7975 35.439 28.7402 34.119 28.6575C33.387 28.6122 32.6897 28.8642 32.1564 29.3642C31.631 29.8588 31.3297 30.5548 31.3297 31.2762C31.3297 31.8602 31.527 32.4295 31.8844 32.8895L31.3737 34.5002C31.251 34.8908 31.3217 35.3215 31.5644 35.6522" fill="white"/>
<path d="M13.3118 31.6404H14.6025C15.0305 31.6404 15.3785 31.9884 15.3785 32.4178C15.3785 32.8458 15.0305 33.1938 14.6025 33.1938H13.3118C12.8838 33.1938 12.5345 32.8458 12.5345 32.4178C12.5345 31.9884 12.8838 31.6404 13.3118 31.6404ZM20.3145 31.6404H21.6052C22.0345 31.6404 22.3825 31.9884 22.3825 32.4178C22.3825 32.8458 22.0345 33.1938 21.6052 33.1938H20.3145C19.8878 33.1938 19.5385 32.8458 19.5385 32.4178C19.5385 31.9884 19.8878 31.6404 20.3145 31.6404ZM31.6132 21.5618C31.6132 20.2511 32.6798 19.1844 33.9905 19.1844C35.3025 19.1844 36.3678 20.2511 36.3678 21.5618V25.1858H31.6132V21.5618ZM46.2838 31.6404H47.5732C48.0025 31.6404 48.3505 31.9884 48.3505 32.4178C48.3505 32.8458 48.0025 33.1938 47.5732 33.1938H46.2838C45.8545 33.1938 45.5065 32.8458 45.5065 32.4178C45.5065 31.9884 45.8545 31.6404 46.2838 31.6404V31.6404ZM53.2865 31.6404H54.5772C55.0052 31.6404 55.3532 31.9884 55.3532 32.4178C55.3532 32.8458 55.0052 33.1938 54.5772 33.1938H53.2865C52.8585 33.1938 52.5092 32.8458 52.5092 32.4178C52.5092 31.9884 52.8585 31.6404 53.2865 31.6404ZM13.3118 34.5271H14.6025C15.5332 34.5271 16.3238 33.9218 16.6038 33.0844H18.3132C18.5932 33.9218 19.3852 34.5271 20.3158 34.5271H21.6052C22.5358 34.5271 23.3278 33.9218 23.6078 33.0844H25.2265V36.6564C25.2265 38.3058 26.5678 39.6484 28.2185 39.6484H37.0358C37.4038 39.6484 37.7025 39.3498 37.7025 38.9818C37.7025 38.6124 37.4038 38.3151 37.0358 38.3151H28.2185C27.3038 38.3151 26.5598 37.5711 26.5598 36.6564V27.0551C26.5598 26.7591 26.7998 26.5191 27.0958 26.5191H40.8105C41.1065 26.5191 41.3465 26.7591 41.3465 27.0551V36.6564C41.3465 37.5138 40.6772 38.2404 39.8238 38.3084C39.4558 38.3378 39.1825 38.6604 39.2118 39.0271C39.2412 39.3938 39.5625 39.6684 39.9292 39.6378C41.4718 39.5138 42.6798 38.2044 42.6798 36.6564V33.0844H44.2812C44.5612 33.9218 45.3532 34.5271 46.2838 34.5271H47.5732C48.5038 34.5271 49.2945 33.9218 49.5745 33.0844H51.2838C51.5638 33.9218 52.3558 34.5271 53.2865 34.5271H54.5772C55.7398 34.5271 56.6865 33.5804 56.6865 32.4178C56.6865 31.2524 55.7398 30.3071 54.5772 30.3071H53.2865C52.3558 30.3071 51.5638 30.9124 51.2838 31.7511H49.5745C49.2945 30.9124 48.5038 30.3071 47.5732 30.3071H46.2838C45.3518 30.3071 44.5612 30.9124 44.2812 31.7511H42.6798V27.0551C42.6798 26.0564 41.8905 25.2391 40.9025 25.1911V21.5618C40.9025 20.9991 40.8332 20.4364 40.6972 19.8898C40.6092 19.5324 40.2465 19.3138 39.8905 19.4031C39.5332 19.4924 39.3145 19.8538 39.4038 20.2111C39.5132 20.6538 39.5692 21.1071 39.5692 21.5618V25.1858H37.7012V21.5618C37.7012 19.5151 36.0372 17.8511 33.9905 17.8511C31.9452 17.8511 30.2798 19.5151 30.2798 21.5618V25.1858H28.4132V21.5618C28.4132 18.4858 30.9158 15.9831 33.9905 15.9831C35.6305 15.9831 37.1798 16.7018 38.2438 17.9551C38.4825 18.2351 38.9025 18.2698 39.1838 18.0311C39.4638 17.7938 39.4985 17.3724 39.2598 17.0924C37.9438 15.5404 36.0225 14.6498 33.9905 14.6498C30.1798 14.6498 27.0798 17.7511 27.0798 21.5618V25.1871C26.0572 25.1951 25.2265 26.0298 25.2265 27.0551V31.7511H23.6078C23.3278 30.9124 22.5358 30.3071 21.6052 30.3071H20.3145C19.3852 30.3071 18.5932 30.9124 18.3132 31.7511H16.6038C16.3238 30.9124 15.5332 30.3071 14.6025 30.3071H13.3118C12.1478 30.3071 11.2012 31.2524 11.2012 32.4178C11.2012 33.5804 12.1478 34.5271 13.3118 34.5271Z" fill="white"/>
</svg>
