<svg width="30" height="60" viewBox="0 0 30 60" fill="none" xmlns="http://www.w3.org/2000/svg">
<path d="M14.8333 2.52267C7.93865 2.52267 2.32798 8.13333 2.32798 15.028V26C2.32798 32.896 7.93865 38.5053 14.8333 38.5053C21.728 38.5053 27.3386 32.896 27.3386 26V15.028C27.3386 8.13333 21.728 2.52267 14.8333 2.52267ZM14.8333 40.5C6.83731 40.5 0.333313 33.996 0.333313 26V15.028C0.333313 7.032 6.83731 0.528 14.8333 0.528C22.8293 0.528 29.3333 7.032 29.3333 15.028V26C29.3333 33.996 22.8293 40.5 14.8333 40.5Z" fill="white"/>
<path d="M14.8333 14.7427C14.1147 14.7427 13.5333 14.16 13.5333 13.4427V6.70934C13.5333 5.99068 14.1147 5.40934 14.8333 5.40934C15.552 5.40934 16.1333 5.99068 16.1333 6.70934V13.4427C16.1333 14.16 15.552 14.7427 14.8333 14.7427Z" fill="white"/>
<path d="M16.567 44.9659C16.567 45.9232 15.791 46.6992 14.8337 46.6992C13.875 46.6992 13.099 45.9232 13.099 44.9659C13.099 44.0086 13.875 43.2326 14.8337 43.2326C15.791 43.2326 16.567 44.0086 16.567 44.9659Z" fill="white"/>
<path d="M16.567 49.9768C16.567 50.9341 15.791 51.7114 14.8337 51.7114C13.875 51.7114 13.099 50.9341 13.099 49.9768C13.099 49.0194 13.875 48.2434 14.8337 48.2434C15.791 48.2434 16.567 49.0194 16.567 49.9768Z" fill="white"/>
<path d="M15.7962 58.841C15.3856 59.4303 14.5749 59.5756 13.9856 59.165L3.03758 51.5356C2.44824 51.125 2.30291 50.3143 2.71358 49.7263C3.12558 49.137 3.93491 48.9916 4.52424 49.4023L15.4722 57.0316C16.0616 57.441 16.2069 58.2516 15.7962 58.841Z" fill="white"/>
<path d="M15.7962 58.8405C15.3856 59.4298 14.5749 59.5751 13.9856 59.1645L3.03758 51.5351C2.44824 51.1245 2.30291 50.3138 2.71358 49.7258C3.12558 49.1365 3.93491 48.9911 4.52424 49.4018L15.4722 57.0298C16.0616 57.4405 16.2069 58.2511 15.7962 58.8405Z" fill="white"/>
<path d="M13.6608 58.8141C13.2661 58.2155 13.4315 57.4088 14.0301 57.0128L25.1701 49.6662C25.7688 49.2702 26.5755 49.4355 26.9715 50.0355C27.3661 50.6355 27.2008 51.4422 26.6021 51.8368L15.4621 59.1835C14.8621 59.5795 14.0568 59.4141 13.6608 58.8141Z" fill="white"/>
</svg>
