<svg xmlns="http://www.w3.org/2000/svg" viewBox="0 0 62.67 58.29"><g id="Layer_2" data-name="Layer 2"><g id="Layer_1-2" data-name="Layer 1"><path d="M56.71,36.87H42.08a6,6,0,0,0-5.95,6v8.25a6.55,6.55,0,0,0,6.55,6.55H56.12a6.55,6.55,0,0,0,6.55-6.55V42.83A6,6,0,0,0,56.71,36.87Zm2.84,14.51a3.47,3.47,0,0,1-3.48,3.47H42.72a3.47,3.47,0,0,1-3.47-3.47V43.12a3.47,3.47,0,0,1,3.47-3.47H56.07a3.47,3.47,0,0,1,3.48,3.47Z" fill="#2e7eb8"/><path d="M42.08,35.81h2v-3.5a5.32,5.32,0,0,1,10.63,0v3.5h2a7,7,0,0,1,1.66.2v-3.7a9,9,0,0,0-17.95,0V36A7,7,0,0,1,42.08,35.81Z" fill="#2e7eb8"/><path d="M55.12,41.3H43.68a2.31,2.31,0,0,0-2.32,2.31v7.28a2.31,2.31,0,0,0,2.32,2.31H55.12a2.31,2.31,0,0,0,2.32-2.31V43.61A2.31,2.31,0,0,0,55.12,41.3Zm-4.37,6.37v2.06a1.36,1.36,0,0,1-2.71,0V47.67a2.35,2.35,0,1,1,2.71,0Z" fill="#2e7eb8"/><path d="M30.37,54V41.9a19.17,19.17,0,0,1,2.59.43,9.26,9.26,0,0,1,.46-2.42,21.25,21.25,0,0,0-3.05-.48V30.37h7a12.09,12.09,0,0,1,.67-2.46h-7.7V18.3a24.56,24.56,0,0,0,11.37-4,28.26,28.26,0,0,1,3.08,6.76,12,12,0,0,1,2.38-.69A30.38,30.38,0,0,0,43.85,13l-.08-.12c1-.77,2.07-1.62,3.1-2.55a25.9,25.9,0,0,1,6.79,10.59,12.32,12.32,0,0,1,4.07,2.54A29.19,29.19,0,0,0,30.37,0V0l-.05,0c-.39,0-.78,0-1.18,0L28,0l-.06,0V0a29.14,29.14,0,1,0,7.54,57.56A9.67,9.67,0,0,1,33,52.42,30.55,30.55,0,0,1,30.37,54ZM45,8.72c-.87.78-1.74,1.49-2.62,2.14a31.45,31.45,0,0,0-7-6.81A25.87,25.87,0,0,1,45,8.72ZM30.37,3.81a29.57,29.57,0,0,1,10,8.45,22.25,22.25,0,0,1-10,3.57Zm-7.49.24a31.83,31.83,0,0,0-7.12,7,26.6,26.6,0,0,1-2.57-2.26A25.85,25.85,0,0,1,22.88,4.05ZM11.31,10.43a29.19,29.19,0,0,0,3.06,2.7A29.91,29.91,0,0,0,9.82,27.91H3.31A25.86,25.86,0,0,1,11.31,10.43Zm-.37,37.06A25.83,25.83,0,0,1,3.31,30.37H9.83c0,.12,0,.24,0,.36a29.94,29.94,0,0,0,4.39,13.81A28.57,28.57,0,0,0,10.94,47.49Zm1.83,1.66a25.63,25.63,0,0,1,2.86-2.55A31.57,31.57,0,0,0,24,54.48,25.79,25.79,0,0,1,12.77,49.15ZM27.91,54a29.4,29.4,0,0,1-10.3-8.77,20.83,20.83,0,0,1,9.82-3.36l.48,0Zm0-14.62-.63,0a23.33,23.33,0,0,0-11,3.76,27.39,27.39,0,0,1-3.93-12.56c0-.07,0-.14,0-.22H27.91Zm0-11.45H12.28a27.69,27.69,0,0,1,4.11-13.36,23.26,23.26,0,0,0,11.05,3.77l.47,0Zm0-12h-.29a21,21,0,0,1-9.85-3.38A29.57,29.57,0,0,1,27.91,3.81Z" fill="#3e4753"/></g></g></svg>