<svg width="67" height="69" viewBox="0 0 67 69" fill="none" xmlns="http://www.w3.org/2000/svg">
<path d="M61.3893 68.2227H5.612C2.512 68.2227 0 65.7107 0 62.612V5.61199C0 2.51199 2.512 -6.10614e-06 5.612 -6.10614e-06H61.3893C64.488 -6.10614e-06 67 2.51199 67 5.61199V62.612C67 65.7107 64.488 68.2227 61.3893 68.2227Z" fill="#707070"/>
<path d="M33.5006 34.2755C33.8566 34.2755 34.146 34.5648 34.146 34.9208C34.146 35.2782 33.8566 35.5675 33.5006 35.5675C33.1433 35.5675 32.854 35.2782 32.854 34.9208C32.854 34.5648 33.1433 34.2755 33.5006 34.2755ZM33.5006 38.1528C33.8873 38.1528 34.2006 37.8382 34.2006 37.4515V36.8462C34.986 36.5582 35.5486 35.8048 35.5486 34.9208C35.5486 33.7928 34.63 32.8742 33.5006 32.8742C32.3713 32.8742 31.4526 33.7928 31.4526 34.9208C31.4526 35.8048 32.0153 36.5582 32.7993 36.8462V37.4515C32.7993 37.8382 33.1126 38.1528 33.5006 38.1528" fill="white"/>
<path d="M46.5436 33.0835C46.5436 40.2755 40.6929 46.1275 33.5009 46.1275C26.3089 46.1275 20.4569 40.2755 20.4569 33.0835C20.4569 25.8915 26.3089 20.0395 33.5009 20.0395C40.6929 20.0395 46.5436 25.8915 46.5436 33.0835ZM34.8996 54.1022C34.8996 54.9275 34.2716 55.5995 33.5009 55.5995C32.7289 55.5995 32.1009 54.9275 32.1009 54.1022C32.1009 53.2768 32.7289 52.6048 33.5009 52.6048C34.2716 52.6048 34.8996 53.2768 34.8996 54.1022V54.1022ZM32.1009 12.0648C32.1009 11.2395 32.7289 10.5688 33.5009 10.5688C34.2716 10.5688 34.8996 11.2395 34.8996 12.0648C34.8996 12.8902 34.2716 13.5622 33.5009 13.5622C32.7289 13.5622 32.1009 12.8902 32.1009 12.0648V12.0648ZM50.4063 42.8448C50.7916 42.1768 51.6863 41.9688 52.4023 42.3808C53.1303 42.8022 53.3783 43.6835 52.9996 44.3408C52.3796 45.4142 50.6543 45.1595 50.2876 43.9048C50.1809 43.5395 50.2223 43.1635 50.4063 42.8448V42.8448ZM16.7129 43.9048C16.4863 44.6862 15.6503 45.1675 14.8609 44.9742C14.0956 44.7888 13.6609 44.0368 13.8823 43.2808C14.0769 42.6128 14.7116 42.1688 15.3809 42.1688C16.3289 42.1688 16.9729 43.0168 16.7129 43.9048ZM16.5943 23.3235C16.2156 23.9795 15.3276 24.2075 14.5983 23.7862C13.8703 23.3648 13.6223 22.4835 14.0009 21.8262C14.3876 21.1582 15.2823 20.9502 15.9969 21.3622C16.7263 21.7835 16.9743 22.6662 16.5943 23.3235V23.3235ZM51.0036 21.3622C51.7383 20.9382 52.6236 21.1755 52.9996 21.8262C53.3783 22.4835 53.1303 23.3648 52.4023 23.7862C51.6729 24.2075 50.7849 23.9782 50.4063 23.3235C50.0276 22.6662 50.2743 21.7835 51.0036 21.3622ZM53.1023 24.9995C54.4676 24.2115 54.9983 22.4862 54.2129 21.1248C53.4369 19.7822 51.6876 19.3502 50.3023 20.1488C49.1263 20.8288 48.5969 22.1728 48.9209 23.3715L45.6409 25.2648C43.1849 21.4648 38.9956 18.8862 34.2009 18.6555V14.8715C35.4076 14.5488 36.3009 13.4128 36.3009 12.0648C36.3009 10.4675 35.0449 9.16751 33.5009 9.16751C31.9569 9.16751 30.6996 10.4675 30.6996 12.0648C30.6996 13.4128 31.5929 14.5488 32.7996 14.8715V18.6555C28.0049 18.8862 23.8156 21.4648 21.3596 25.2648L18.0796 23.3715C18.4023 22.1808 17.8823 20.8328 16.6983 20.1488C15.3143 19.3502 13.5596 19.7875 12.7876 21.1248C12.0023 22.4862 12.5316 24.2115 13.8983 24.9995C15.0783 25.6808 16.5063 25.4622 17.3783 24.5848L20.6569 26.4768C19.6343 28.4582 19.0556 30.7048 19.0556 33.0835C19.0556 35.4622 19.6343 37.7088 20.6569 39.6902L17.3783 41.5835C15.8489 40.0528 13.1529 40.7835 12.5369 42.8875C12.0156 44.6742 13.3343 46.4195 15.2169 46.4195C16.4716 46.4195 17.6809 45.5928 18.0583 44.2982C18.2063 43.7968 18.2103 43.2808 18.0796 42.7955L21.3596 40.9022C23.8156 44.7022 28.0049 47.2808 32.7996 47.5115V51.2955C31.5943 51.6182 30.6996 52.7542 30.6996 54.1022C30.6996 55.6995 31.9569 56.9995 33.5009 56.9995C35.0449 56.9995 36.3009 55.6995 36.3009 54.1022C36.3009 52.7542 35.4076 51.6182 34.2009 51.2955V47.5115C38.9956 47.2808 43.1849 44.7022 45.6409 40.9022L48.9209 42.7968C48.7903 43.2808 48.7943 43.7968 48.9423 44.2982C49.6529 46.7275 52.9743 47.1875 54.2129 45.0422C54.9983 43.6808 54.4689 41.9555 53.1023 41.1675C51.9356 40.4942 50.5049 40.6995 49.6236 41.5835L46.3436 39.6902C47.3663 37.7088 47.9449 35.4622 47.9449 33.0835C47.9449 30.7048 47.3676 28.4582 46.3436 26.4768L49.6223 24.5848C50.4903 25.4582 51.9183 25.6835 53.1023 24.9995Z" fill="white"/>
<path d="M36.1921 30.6786H30.8081V29.3772C30.8081 27.8932 32.0161 26.6852 33.5001 26.6852C34.9855 26.6852 36.1921 27.8932 36.1921 29.3772V30.6786ZM35.1361 40.2812H37.5228C38.5348 40.2812 39.3588 39.4559 39.3588 38.4439V32.5146C39.3588 31.5266 38.5735 30.7199 37.5935 30.6812V29.3772C37.5935 27.1212 35.7575 25.2839 33.5001 25.2839C31.2441 25.2839 29.4068 27.1212 29.4068 29.3772V30.6812C28.4281 30.7199 27.6415 31.5266 27.6415 32.5146V38.4439C27.6415 39.4559 28.4668 40.2812 29.4788 40.2812H31.8655C32.2521 40.2812 32.5668 39.9666 32.5668 39.5799C32.5668 39.1932 32.2521 38.8786 31.8655 38.8786H29.4788C29.2428 38.8786 29.0441 38.6799 29.0441 38.4439V32.5146C29.0441 32.2786 29.2428 32.0799 29.4788 32.0799H37.5228C37.7588 32.0799 37.9575 32.2786 37.9575 32.5146V38.4439C37.9575 38.6799 37.7588 38.8786 37.5228 38.8786H35.1361C34.7481 38.8786 34.4348 39.1932 34.4348 39.5799C34.4348 39.9666 34.7481 40.2812 35.1361 40.2812" fill="white"/>
<path d="M33.5007 21.5818C27.1593 21.5818 21.9993 26.7418 21.9993 33.0831C21.9993 39.4245 27.1593 44.5845 33.5007 44.5845C36.2687 44.5845 38.9433 43.5871 41.0313 41.7765C43.098 39.9845 44.462 37.5151 44.87 34.8231C44.9287 34.4405 44.666 34.0831 44.2833 34.0258C43.9007 33.9671 43.5433 34.2298 43.4847 34.6125C42.7433 39.4991 38.45 43.1831 33.5007 43.1831C27.9313 43.1831 23.4007 38.6525 23.4007 33.0831C23.4007 27.5138 27.9313 22.9831 33.5007 22.9831C38.45 22.9831 42.7433 26.6671 43.4847 31.5538C43.5433 31.9365 43.9007 32.1991 44.2833 32.1405C44.666 32.0831 44.9287 31.7258 44.87 31.3431C44.0207 25.7405 39.1807 21.5818 33.5007 21.5818Z" fill="white"/>
</svg>
