<svg width="236" height="236" viewBox="0 0 236 236" fill="none" xmlns="http://www.w3.org/2000/svg">
<path d="M117.979 94.8322C109.332 94.8322 102.323 87.8228 102.323 79.1762C102.323 70.5282 109.332 63.5188 117.979 63.5188C126.625 63.5188 133.635 70.5282 133.635 79.1762C133.635 87.8228 126.625 94.8322 117.979 94.8322ZM117.979 55.6908C105.008 55.6908 94.4945 66.2055 94.4945 79.1762C94.5065 92.1402 105.013 102.648 117.979 102.66C130.949 102.66 141.464 92.1455 141.464 79.1762C141.464 66.2055 130.949 55.6908 117.979 55.6908Z" fill="#0F1E57"/>
<path d="M159.734 171.584L158.04 159.712C157.192 153.941 152.253 149.655 146.418 149.629H142.92L153.284 117.385C160.98 124.555 165.722 134.34 166.58 144.823C167.376 154.26 164.964 163.689 159.734 171.584ZM101.261 149.629L88.3757 109.541L87.5143 106.86C80.8423 86.1906 82.0477 63.7826 90.901 43.948H145.057C153.909 63.7826 155.116 86.1906 148.442 106.86L147.581 109.541L134.696 149.629H101.261ZM107.097 169.2L109.446 157.457H126.512L128.86 169.2H107.097ZM89.5383 149.629C83.705 149.655 78.765 153.941 77.917 159.712L76.2223 171.584C70.993 163.689 68.581 154.26 69.377 144.823H69.373C70.2343 134.339 74.981 124.553 82.681 117.385L93.0383 149.629H89.5383ZM117.978 9.67197C127.385 16.8493 135.256 25.8426 141.12 36.12H94.8383C100.702 25.8426 108.572 16.8493 117.978 9.67197ZM159.94 113.033C158.648 111.74 157.286 110.517 155.86 109.372L155.898 109.259C168.8 69.4453 154.368 25.864 120.253 1.62131C118.892 0.649307 117.065 0.649307 115.705 1.62131C81.589 25.864 67.157 69.4453 80.0583 109.259L80.097 109.372C58.5743 126.651 55.1317 158.105 72.409 179.629C73.5543 181.056 74.7757 182.417 76.0703 183.709C76.8037 184.444 77.7997 184.856 78.837 184.856C79.2583 184.856 79.6757 184.788 80.0743 184.657C81.481 184.188 82.5023 182.965 82.7117 181.499L85.6677 160.816C85.9437 158.889 87.593 157.459 89.5383 157.457H101.461L98.4863 172.332C98.0543 174.449 99.421 176.517 101.538 176.948C101.796 177.001 102.058 177.028 102.322 177.028H133.634C135.797 177.028 137.549 175.277 137.55 173.115C137.55 172.852 137.524 172.589 137.47 172.332L134.496 157.457H146.418C148.365 157.46 150.014 158.892 150.29 160.82L153.245 181.499C153.456 182.965 154.477 184.188 155.882 184.657C156.282 184.788 156.7 184.856 157.12 184.856C158.158 184.856 159.153 184.444 159.888 183.709C179.418 164.208 179.442 132.565 159.94 113.033Z" fill="#444F60"/>
<path d="M102.322 184.543V197.303C92.8169 194.402 82.4875 196.927 75.3929 203.887C69.4449 196.81 60.6835 192.711 51.4382 192.685C48.5889 192.685 45.7529 193.079 43.0115 193.859C39.8502 175.054 23.5382 161.303 4.46887 161.373H0.555542V169.201H4.46887C20.4689 169.151 33.9022 181.238 35.5355 197.154C31.7315 199.37 28.4355 202.362 25.8635 205.934C18.8089 199.906 9.83421 196.597 0.555542 196.599V204.427C17.8409 204.447 31.8489 218.454 31.8675 235.739H39.6955C39.7009 227.07 36.8075 218.647 31.4769 211.809C33.7995 207.959 37.1755 204.854 41.2075 202.862C41.2462 202.862 41.2889 202.862 41.3275 202.822C44.4809 201.301 47.9369 200.511 51.4382 200.513C59.0249 200.549 66.1275 204.238 70.5195 210.423C68.2955 214.605 67.1209 219.263 67.0955 223.998H74.9235C74.9195 219.995 76.0502 216.075 78.1835 212.69H78.1595C78.2142 212.615 78.2902 212.561 78.3449 212.482C83.6329 204.709 93.7155 201.817 102.322 205.601V215.857H110.15V184.543H102.322Z" fill="#444F60"/>
<path d="M231.488 169.2H235.403V161.372H231.488C212.419 161.304 196.106 175.055 192.946 193.859C190.204 193.08 187.368 192.684 184.519 192.684C175.276 192.71 166.514 196.803 160.564 203.875C153.47 196.916 143.14 194.391 133.635 197.291V184.532H125.807V215.844H133.635V205.602C142.24 201.815 152.322 204.707 157.612 212.478C157.668 212.558 157.742 212.612 157.796 212.686H157.774C159.907 216.072 161.038 219.995 161.034 223.998H168.862C168.836 219.263 167.662 214.604 165.438 210.423C169.828 204.238 176.932 200.548 184.519 200.512C188.02 200.514 191.476 201.306 194.628 202.831C194.668 202.85 194.711 202.854 194.75 202.87C198.787 204.858 202.171 207.959 204.5 211.81C199.162 218.644 196.262 227.067 196.262 235.74H204.09C204.108 218.454 218.116 204.447 235.403 204.427V196.599C226.123 196.596 217.148 199.907 210.094 205.934C207.522 202.362 204.226 199.37 200.422 197.155C202.055 181.238 215.488 169.151 231.488 169.2Z" fill="#444F60"/>
<path d="M98.408 114.403H106.236V122.231H98.408V114.403Z" fill="#0F1E57"/>
<path d="M114.064 114.403H121.892V122.231H114.064V114.403Z" fill="#0F1E57"/>
<path d="M129.721 114.403H137.551V122.231H129.721V114.403Z" fill="#0F1E57"/>
<path d="M43.6107 208.342H51.4386V216.169H43.6107V208.342Z" fill="#0F1E57"/>
<path d="M0.555969 145.715H8.38401V153.543H0.555969V145.715Z" fill="#0F1E57"/>
<path d="M219.745 180.943H227.573V188.771H219.745V180.943Z" fill="#0F1E57"/>
<path d="M188.433 165.287H196.261V173.115H188.433V165.287Z" fill="#0F1E57"/>
<path d="M145.377 227.912H153.205V235.74H145.377V227.912Z" fill="#0F1E57"/>
<path d="M227.573 137.887H235.403V145.715H227.573V137.887Z" fill="#0F1E57"/>
</svg>
