<svg width="68" height="69" viewBox="0 0 68 69" fill="none" xmlns="http://www.w3.org/2000/svg">
<path d="M61.8333 68.2383H6.05597C2.95597 68.2383 0.44397 65.7263 0.44397 62.6276V5.62762C0.44397 2.52895 2.95597 0.0156189 6.05597 0.0156189H61.8333C64.932 0.0156189 67.444 2.52895 67.444 5.62762V62.6276C67.444 65.7263 64.932 68.2383 61.8333 68.2383Z" fill="#0F1E57"/>
<path d="M45.176 30.3587H21.9013V28.2845H45.176V30.3587ZM23.1986 44.4551H21.9013V42.3789H45.176V44.4551H25.8067C25.4293 44.4551 25.124 44.76 25.124 45.1374C25.124 45.5134 25.4293 45.8203 25.8067 45.8203H48.0866C49.6933 45.8203 50.9986 47.1258 50.9986 48.7311V52.2005C50.9986 53.8059 49.6933 55.1107 48.0866 55.1107H18.9893C17.384 55.1107 16.0786 53.8059 16.0786 52.2005V48.7311C16.0786 47.1258 17.384 45.8203 18.9893 45.8203H23.1986C23.576 45.8203 23.8813 45.5134 23.8813 45.1374C23.8813 44.76 23.576 44.4551 23.1986 44.4551ZM48.0866 28.2845C50.4453 28.2845 52.3626 26.3658 52.3626 24.0085V20.5391C52.3626 18.1817 50.4453 16.263 48.0866 16.263H23.8053C23.428 16.263 23.1227 16.5686 23.1227 16.946C23.1227 17.322 23.428 17.627 23.8053 17.627H48.0866C49.6933 17.627 50.9986 18.9337 50.9986 20.5391V24.0085C50.9986 25.6138 49.6933 26.9193 48.0866 26.9193H45.8587H21.2186H18.9893C17.384 26.9193 16.0786 25.6138 16.0786 24.0085V20.5391C16.0786 18.9337 17.384 17.627 18.9893 17.627H21.1666C21.544 17.627 21.8493 17.322 21.8493 16.946C21.8493 16.5686 21.544 16.263 21.1666 16.263H18.9893C16.632 16.263 14.7133 18.1817 14.7133 20.5391V24.0085C14.7133 26.3658 16.632 28.2845 18.9893 28.2845H20.536V30.3587H18.9893C16.632 30.3587 14.7133 32.2774 14.7133 34.6348V38.1029C14.7133 40.4615 16.632 42.3789 18.9893 42.3789H20.536V44.4551H18.9893C16.632 44.4551 14.7133 46.3738 14.7133 48.7311V52.2005C14.7133 54.5579 16.632 56.4766 18.9893 56.4766H48.0866C50.4453 56.4766 52.3626 54.5579 52.3626 52.2005V48.7311C52.3626 46.3738 50.4453 44.4551 48.0866 44.4551H46.54V42.3789H48.0866C50.4453 42.3789 52.3626 40.4615 52.3626 38.1029V37.291C52.3626 36.9137 52.0573 36.6081 51.6813 36.6081C51.304 36.6081 50.9986 36.9137 50.9986 37.291V38.1029C50.9986 39.7095 49.6933 41.015 48.0866 41.015H45.8587H21.2186H18.9893C17.384 41.015 16.0786 39.7095 16.0786 38.1029V34.6348C16.0786 33.0294 17.384 31.7227 18.9893 31.7227H21.2186H45.8587H48.0866C49.6933 31.7227 50.9986 33.0294 50.9986 34.6348C50.9986 35.0121 51.304 35.3177 51.6813 35.3177C52.0573 35.3177 52.3626 35.0121 52.3626 34.6348C52.3626 32.2774 50.4453 30.3587 48.0866 30.3587H46.54V28.2845H48.0866Z" fill="white"/>
<path d="M45.5774 37.0017C45.2921 37.0017 45.0508 36.8124 44.9721 36.5537V36.1844C45.0508 35.9257 45.2921 35.7364 45.5774 35.7364C45.9268 35.7364 46.2108 36.0204 46.2108 36.3684C46.2108 36.7177 45.9268 37.0017 45.5774 37.0017ZM45.5774 34.3711C44.7161 34.3711 43.9788 34.9204 43.7001 35.6871H32.1294C31.7521 35.6871 31.4468 35.9924 31.4468 36.3684C31.4468 36.7457 31.7521 37.0511 32.1294 37.0511H43.7001C43.9788 37.8177 44.7161 38.3657 45.5774 38.3657C46.6788 38.3657 47.5748 37.4711 47.5748 36.3684C47.5748 35.2684 46.6788 34.3711 45.5774 34.3711Z" fill="white"/>
<path d="M45.5774 22.5349C45.2921 22.5349 45.0508 22.3456 44.9721 22.0869V21.7176C45.0508 21.4589 45.2921 21.2696 45.5774 21.2696C45.9268 21.2696 46.2108 21.5536 46.2108 21.9016C46.2108 22.2509 45.9268 22.5349 45.5774 22.5349ZM45.5774 19.9043C44.7161 19.9043 43.9788 20.4536 43.7001 21.2203H32.1294C31.7521 21.2203 31.4468 21.5256 31.4468 21.9016C31.4468 22.2789 31.7521 22.5843 32.1294 22.5843H43.7001C43.9788 23.3509 44.7161 23.8989 45.5774 23.8989C46.6788 23.8989 47.5748 23.0043 47.5748 21.9016C47.5748 20.8003 46.6788 19.9043 45.5774 19.9043" fill="white"/>
<path d="M45.5774 51.469C45.2921 51.469 45.0508 51.2797 44.9721 51.0197V50.6517C45.0508 50.3917 45.2921 50.2023 45.5774 50.2023C45.9268 50.2023 46.2108 50.4877 46.2108 50.8357C46.2108 51.185 45.9268 51.469 45.5774 51.469ZM45.5774 48.8383C44.7161 48.8383 43.9788 49.3863 43.7001 50.153H32.1294C31.7521 50.153 31.4468 50.4597 31.4468 50.8357C31.4468 51.213 31.7521 51.5183 32.1294 51.5183H43.7001C43.9788 52.285 44.7161 52.833 45.5774 52.833C46.6788 52.833 47.5748 51.937 47.5748 50.8357C47.5748 49.7343 46.6788 48.8383 45.5774 48.8383" fill="white"/>
<path d="M56.9967 18.4642H56.3767V17.8442C56.3767 17.4669 56.0714 17.1615 55.6941 17.1615C55.3181 17.1615 55.0114 17.4669 55.0114 17.8442V18.4642H54.3914C54.0154 18.4642 53.7101 18.7695 53.7101 19.1469C53.7101 19.5229 54.0154 19.8282 54.3914 19.8282H55.0114V20.4495C55.0114 20.8255 55.3181 21.1309 55.6941 21.1309C56.0714 21.1309 56.3767 20.8255 56.3767 20.4495V19.8282H56.9967C57.3741 19.8282 57.6794 19.5229 57.6794 19.1469C57.6794 18.7695 57.3741 18.4642 56.9967 18.4642Z" fill="white"/>
<path d="M14.3866 29.4984H13.7666V28.8784C13.7666 28.501 13.4613 28.1957 13.084 28.1957C12.7066 28.1957 12.4013 28.501 12.4013 28.8784V29.4984H11.7813C11.404 29.4984 11.0986 29.8037 11.0986 30.181C11.0986 30.557 11.404 30.8637 11.7813 30.8637H12.4013V31.4837C12.4013 31.8597 12.7066 32.165 13.084 32.165C13.4613 32.165 13.7666 31.8597 13.7666 31.4837V30.8637H14.3866C14.7626 30.8637 15.0693 30.557 15.0693 30.181C15.0693 29.8037 14.7626 29.4984 14.3866 29.4984Z" fill="white"/>
<path d="M50.7766 11.9022H50.1566V11.2822C50.1566 10.9048 49.8513 10.5995 49.474 10.5995C49.0966 10.5995 48.7913 10.9048 48.7913 11.2822V11.9022H48.1713C47.794 11.9022 47.4886 12.2075 47.4886 12.5848C47.4886 12.9608 47.7953 13.2662 48.1713 13.2662H48.7913V13.8875C48.7913 14.2635 49.0966 14.5688 49.474 14.5688C49.8513 14.5688 50.1566 14.2635 50.1566 13.8875V13.2662H50.7766C51.154 13.2662 51.4593 12.9608 51.4593 12.5848C51.4593 12.2075 51.154 11.9022 50.7766 11.9022Z" fill="white"/>
</svg>
