<svg id="Layer_1" data-name="Layer 1" xmlns="http://www.w3.org/2000/svg" viewBox="0 0 1117 500"><defs><style>.cls-1{fill:#f98533;}.cls-2{fill:#1b5581;}</style></defs><title>Full Color</title><g id="Layer_2" data-name="Layer 2"><g id="Layer_2-2" data-name="Layer 2-2"><path class="cls-1" d="M412.41,372.57v61.12a7.4,7.4,0,0,1-7.35,7.45H53.18a7.41,7.41,0,0,1-7.44-7.36V66.26a7.41,7.41,0,0,1,7.36-7.44H405a7.4,7.4,0,0,1,7.44,7.36v61.25a7.39,7.39,0,0,0,7.4,7.39h23.57a7.39,7.39,0,0,0,7.44-7.35V27.86a7.4,7.4,0,0,0-7.36-7.44H14.78a7.38,7.38,0,0,0-7.44,7.35.14.14,0,0,0,0,.09V472.14a7.38,7.38,0,0,0,7.35,7.44H443.38a7.39,7.39,0,0,0,7.44-7.35V372.57a7.39,7.39,0,0,0-7.4-7.39H419.85a7.39,7.39,0,0,0-7.44,7.35Z"/><path class="cls-2" d="M327.21,170.74a9.1,9.1,0,0,1,6.88,2.45,15.67,15.67,0,0,1,3.32,5L386.78,321a10.34,10.34,0,0,1,.9,3.36,4.91,4.91,0,0,1-1.46,3.52,4.79,4.79,0,0,1-3.53,1.47H354.14a9.17,9.17,0,0,1-6.46-1.9,8.34,8.34,0,0,1-2.36-3.74L339,304.84H278.79l-6.33,18.79a8.63,8.63,0,0,1-2.36,3.74,9.09,9.09,0,0,1-6.45,1.89H235a5,5,0,0,1-5-5h0a10.29,10.29,0,0,1,.91-3.36l49.37-142.74a15,15,0,0,1,3.31-5,9.12,9.12,0,0,1,6.88-2.45Zm-36.73,98.91h36.73l-18.32-54.31Z"/><path class="cls-2" d="M416.67,329.26a6.15,6.15,0,0,1-6.11-6.1V176.93a6.17,6.17,0,0,1,6.11-6.11h29.85a6.15,6.15,0,0,1,6.1,6.11V323.16a6.14,6.14,0,0,1-6.1,6.1Z"/><path class="cls-2" d="M556.19,170.74a103.1,103.1,0,0,1,26.75,3.14,56.93,56.93,0,0,1,20,9.46,41.44,41.44,0,0,1,12.9,16.21,56,56,0,0,1,4.3,23,52,52,0,0,1-7,28.17,44.45,44.45,0,0,1-19.91,17.2l28.08,53.94a5.28,5.28,0,0,1,.69,2.45,5,5,0,0,1-1.46,3.52,4.79,4.79,0,0,1-3.53,1.47H586.21a8.63,8.63,0,0,1-6.45-2,19.67,19.67,0,0,1-3.06-4.09l-25.24-48.51H530.6v48.47a6.15,6.15,0,0,1-6.11,6.1H494.82a6.14,6.14,0,0,1-6.11-6.1V176.93a6.15,6.15,0,0,1,6.11-6.11ZM530.6,239.55h25.59a30.9,30.9,0,0,0,15.74-3.61A13.88,13.88,0,0,0,578.17,223a13.86,13.86,0,0,0-6.24-13.16,30.9,30.9,0,0,0-15.74-3.61H530.6Z"/><path class="cls-2" d="M715.66,204.84a33.41,33.41,0,0,0-12.9,2.15,22.54,22.54,0,0,0-8.6,5.76,23.68,23.68,0,0,0-4.91,8.39,53.33,53.33,0,0,0-2.23,10,65,65,0,0,0-.6,8.13V250c0,3.7,0,7.35.21,10.88s.3,6.32.47,8.26a39.27,39.27,0,0,0,2.15,10,24.52,24.52,0,0,0,5,8.6,22.46,22.46,0,0,0,8.61,5.76,33.38,33.38,0,0,0,12.9,2.15,43.61,43.61,0,0,0,11.09-1.33,26,26,0,0,0,9.08-4.3,21,21,0,0,0,6.11-7.7,27.06,27.06,0,0,0,2.28-11.57h-19.1a6.18,6.18,0,0,1-6.11-6.11V240.28a6.15,6.15,0,0,1,6.15-6.15h54.8a5.84,5.84,0,0,1,4.3,1.81,6,6,0,0,1,1.8,4.3v29.11a60.58,60.58,0,0,1-5.42,25.81,57.06,57.06,0,0,1-15,19.61,67,67,0,0,1-22.5,12.47,85.69,85.69,0,0,1-27.74,4.3,82,82,0,0,1-29.11-4.86,67.31,67.31,0,0,1-21.85-13.24,58.48,58.48,0,0,1-13.94-19.61,69.25,69.25,0,0,1-5.54-23.66c-.31-6.19-.43-12.9-.43-20s0-13.9.43-20.39a62.77,62.77,0,0,1,5.46-23.66,59.67,59.67,0,0,1,13.93-19.61,65.19,65.19,0,0,1,21.85-13.24,90.28,90.28,0,0,1,57.76-.22,74,74,0,0,1,21.5,11.79,57.57,57.57,0,0,1,14,15.65A36.61,36.61,0,0,1,785,216.75a3.94,3.94,0,0,1-1.38,3.49,5,5,0,0,1-3.61,1.5H749.9a6.92,6.92,0,0,1-5.34-2.06c-1.29-1.33-2.53-2.71-3.74-4.09a32.1,32.1,0,0,0-8.6-7.44A31.74,31.74,0,0,0,715.66,204.84Z"/><path class="cls-2" d="M896.21,170.74a9.2,9.2,0,0,1,6.92,2.45,14.7,14.7,0,0,1,3.27,5L955.78,321a10.34,10.34,0,0,1,.9,3.36,5,5,0,0,1-4.95,5H923.18a9.17,9.17,0,0,1-6.46-1.9,7.94,7.94,0,0,1-2.36-3.74L908,304.88H847.78l-6.32,18.79a8.82,8.82,0,0,1-2.41,3.74,9.14,9.14,0,0,1-6.45,1.9H804.09a5,5,0,0,1-4.91-5,10.3,10.3,0,0,1,.91-3.35l49.24-142.74a14.7,14.7,0,0,1,3.27-5,9.21,9.21,0,0,1,6.92-2.45Zm-36.69,98.91h36.69l-18.32-54.31Z"/><path class="cls-2" d="M1050.48,170.74a95.46,95.46,0,0,1,26.06,3.26,54,54,0,0,1,19.7,10,44.12,44.12,0,0,1,12.6,16.56,55.79,55.79,0,0,1,4.3,23.1,56.81,56.81,0,0,1-4.3,23.35,43.47,43.47,0,0,1-12.56,16.51,56.27,56.27,0,0,1-19.74,10.15,93.27,93.27,0,0,1-26.06,3.4h-29v46.11a5.85,5.85,0,0,1-1.8,4.3,6,6,0,0,1-4.3,1.8H985.71a6,6,0,0,1-4.3-1.8,5.86,5.86,0,0,1-1.81-4.3V176.93a5.86,5.86,0,0,1,1.81-4.3,6,6,0,0,1,4.3-1.81Zm-29,70.87h27.83a27.69,27.69,0,0,0,15.78-4.3,15.37,15.37,0,0,0,6.2-13.72,15.37,15.37,0,0,0-6.2-13.72,27.84,27.84,0,0,0-15.78-4.3h-27.83Z"/></g></g></svg>