<svg width="29" height="29" viewBox="0 0 29 29" fill="none" xmlns="http://www.w3.org/2000/svg">
<path d="M14.703 3.8997C8.80829 3.8997 4.03096 8.67704 4.03096 14.5717C4.03096 20.465 8.80829 25.2437 14.703 25.2437C20.5976 25.2437 25.375 20.465 25.375 14.5717C25.375 8.67704 20.5976 3.8997 14.703 3.8997ZM14.703 28.5264C6.99629 28.5264 0.748291 22.2797 0.748291 14.5717C0.748291 6.8637 6.99629 0.615704 14.703 0.615704C22.411 0.615704 28.659 6.8637 28.659 14.5717C28.659 22.2797 22.411 28.5264 14.703 28.5264Z" fill="#FF0000"/>
<path d="M18.8463 13.2282L13.5797 18.3576C12.9357 18.9829 11.9063 18.9709 11.2797 18.3269C10.653 17.6829 10.6663 16.6536 11.3103 16.0269L16.577 10.8976C17.2197 10.2709 18.2503 10.2842 18.8757 10.9282C19.5037 11.5722 19.489 12.6016 18.8463 13.2282Z" fill="#FF0000"/>
<path d="M16.4778 18.3959L11.3485 13.1292C10.7232 12.4852 10.7352 11.4559 11.3792 10.8292C12.0218 10.2026 13.0525 10.2159 13.6792 10.8599L18.8072 16.1252C19.4352 16.7692 19.4205 17.7999 18.7778 18.4252C18.1338 19.0532 17.1045 19.0386 16.4778 18.3959Z" fill="#FF0000"/>
</svg>
