<svg width="29" height="29" viewBox="0 0 29 29" fill="none" xmlns="http://www.w3.org/2000/svg">
<path d="M18.8463 13.2282L13.5797 18.3576C12.9357 18.9829 11.9063 18.9709 11.2797 18.3269C10.653 17.6829 10.6663 16.6536 11.3103 16.0269L16.577 10.8976C17.2197 10.2709 18.2503 10.2842 18.8757 10.9282C19.5037 11.5722 19.489 12.6016 18.8463 13.2282Z" fill="#ffffff"/>
<path d="M16.4778 18.3959L11.3485 13.1292C10.7232 12.4852 10.7352 11.4559 11.3792 10.8292C12.0218 10.2026 13.0525 10.2159 13.6792 10.8599L18.8072 16.1252C19.4352 16.7692 19.4205 17.7999 18.7778 18.4252C18.1338 19.0532 17.1045 19.0386 16.4778 18.3959Z" fill="#ffffff"/>
</svg>
