<svg width="29" height="29" viewBox="0 0 29 29" fill="none" xmlns="http://www.w3.org/2000/svg">
<path d="M12.9712 18.6753C12.5365 18.674 12.1192 18.5006 11.8138 18.1913L9.35118 15.7286C8.70984 15.0873 8.70984 14.046 9.35118 13.4046C9.99251 12.7646 11.0338 12.7646 11.6738 13.4046L13.0605 14.7926L17.6512 10.8606C18.4032 10.3553 19.4232 10.5566 19.9285 11.3086C20.3472 11.934 20.2885 12.7633 19.7845 13.3233L14.0392 18.2486C13.7458 18.514 13.3672 18.666 12.9712 18.6753Z" fill="#0F1E57"/>
<path d="M14.6133 3.8997C8.71862 3.8997 3.94129 8.67704 3.94129 14.5717C3.94129 20.465 8.71862 25.2437 14.6133 25.2437C20.508 25.2437 25.2853 20.465 25.2853 14.5717C25.2853 8.67704 20.508 3.8997 14.6133 3.8997ZM14.6133 28.5264C6.90662 28.5264 0.657288 22.2797 0.657288 14.5717C0.657288 6.8637 6.90662 0.615704 14.6133 0.615704C22.32 0.615704 28.5693 6.8637 28.5693 14.5717C28.5693 22.2797 22.32 28.5264 14.6133 28.5264Z" fill="#0F1E57"/>
</svg>
